<?xml version="1.0" encoding="UTF-8" standalone="no"?>
<!-- Created with Inkscape (http://www.inkscape.org/) -->

<svg
   xmlns:dc="http://purl.org/dc/elements/1.1/"
   xmlns:cc="http://creativecommons.org/ns#"
   xmlns:rdf="http://www.w3.org/1999/02/22-rdf-syntax-ns#"
   xmlns:svg="http://www.w3.org/2000/svg"
   xmlns="http://www.w3.org/2000/svg"
   xmlns:sodipodi="http://sodipodi.sourceforge.net/DTD/sodipodi-0.dtd"
   xmlns:inkscape="http://www.inkscape.org/namespaces/inkscape"
   height="562"
   width="564"
   version="1.1"
   id="svg2"
   inkscape:version="0.48.4 r9939"
   sodipodi:docname="海巡徽.svg"
   inkscape:export-filename="D:\網頁\haixun.png"
   inkscape:export-xdpi="30.199734"
   inkscape:export-ydpi="30.199734">
  <defs
     id="defs112" />
  <sodipodi:namedview
     pagecolor="#ffffff"
     bordercolor="#666666"
     borderopacity="1"
     objecttolerance="10"
     gridtolerance="10"
     guidetolerance="10"
     inkscape:pageopacity="0"
     inkscape:pageshadow="2"
     inkscape:window-width="1920"
     inkscape:window-height="1028"
     id="namedview110"
     showgrid="false"
     inkscape:zoom="1"
     inkscape:cx="691.66757"
     inkscape:cy="367.47087"
     inkscape:window-x="-8"
     inkscape:window-y="-8"
     inkscape:window-maximized="1"
     inkscape:current-layer="svg2"
     showguides="true"
     inkscape:guide-bbox="true" />
  <metadata
     id="metadata4">
    <rdf:RDF>
      <cc:Work
         rdf:about="">
        <dc:format>image/svg+xml</dc:format>
        <dc:type
           rdf:resource="http://purl.org/dc/dcmitype/StillImage" />
        <dc:title />
      </cc:Work>
    </rdf:RDF>
  </metadata>
  <g
     id="g3797"
     transform="translate(-280.49,-93.956)">
    <g
       style="stroke:#000000;stroke-width:1.11397278;stroke-miterlimit:4;stroke-opacity:1;stroke-dasharray:none"
       id="g8"
       transform="matrix(1.12211,0,0,1.12211,282.22179,93.22355)">
      <g
         style="stroke:#000000;stroke-width:1.11397278;stroke-miterlimit:4;stroke-opacity:1;stroke-dasharray:none"
         id="g10">
        <path
           id="path12"
           d="m 410.43,203.48 v 4.962 h -51.045 v -5.318 h -7.796 v 22.866 l 6.734,5.493 h 28.182 v 6.912 h -256.63 v -7.444 h 23.042 l 4.605,-4.962 v -24.28 h -9.218 v 4.786 h -46.967 v -5.14 h -9.21 l 0.001,26.941 3.015,3.013 h 29.598 v 18.965 h 129.92 l -5.139,7.977 h 19.674 l -6.379,-7.978 h 130.64 v -19.33 h 21.621 l 2.659,-3.545 V 203.47 h -7.264 v 0.001 z m -310.35,17.367 v -7.976 h 48.209 v 7.976 H 100.08 z m 308.76,0.924 h -48.21 v -7.976 h 48.21 v 7.976 z"
           style="fill:#ffffff;stroke:#000000;stroke-width:1.11397278;stroke-miterlimit:4;stroke-opacity:1;stroke-dasharray:none"
           inkscape:connector-curvature="0" />
      </g>
      <g
         style="stroke:#000000;stroke-width:1.11397278;stroke-miterlimit:4;stroke-opacity:1;stroke-dasharray:none"
         id="g14">
        <path
           id="path16"
           d="m 410.43,203.48 v 4.962 h -51.045 v -5.318 h -7.796 v 22.866 l 6.734,5.493 h 28.182 v 6.912 h -256.63 v -7.444 h 23.042 l 4.605,-4.962 v -24.28 h -9.218 v 4.786 h -46.967 v -5.14 h -9.21 l 0.001,26.941 3.015,3.013 h 29.598 v 18.965 h 129.92 l -5.139,7.977 h 19.674 l -6.379,-7.978 h 130.64 v -19.33 h 21.621 l 2.659,-3.545 V 203.47 h -7.264 v 0.001 z m -310.35,17.367 v -7.976 h 48.209 v 7.976 H 100.08 z m 308.76,0.924 h -48.21 v -7.976 h 48.21 v 7.976 z"
           style="fill:none;stroke:#000000;stroke-width:1.11397278;stroke-miterlimit:4;stroke-opacity:1;stroke-dasharray:none"
           inkscape:connector-curvature="0" />
      </g>
    </g>
    <g
       id="g18"
       transform="matrix(1.1047169,0,0,1.1449547,438.43388,248.71)"
       style="fill:#ffdb00;fill-opacity:1;stroke:#000000;stroke-width:1.11145115;stroke-miterlimit:4;stroke-opacity:1;stroke-dasharray:none">
      <path
         id="path20"
         d="m 125.65,0 c 3.9331,10.665 -11.622,15.094 -16.37,34.228 -1.4882,11.48 13.961,15.839 13.252,26.717 -9.7087,0.4252 -16.689,-9.1772 -18.638,-17.539 -1.878,-4.7126 0.24804,-13.89 1.1339,-18.886 0.9567,-5.6339 -12.543,-6.0236 -18.425,-5.9882 -2.9055,0.56693 -0.56693,5.9173 0.4252,7.1929 1.311,1.878 4.748,3.7559 4.6417,13.217 -0.56693,27.283 -35.894,45.673 -41.244,64.169 5.2441,1.3819 82.913,-38.339 123.87,-54.85 11.587,-5.7402 15.555,-1.1339 4.9606,4.1811 -40.181,22.819 -95.705,45.354 -93.154,49.89 3.4724,1.0984 25.193,-13.642 67.075,-32.102 6.1299,-3.2598 9.3543,0.28346 1.6299,5.315 -16.618,11.126 -70.831,33.661 -67.004,35.823 6.4134,-0.35433 18.461,-8.3268 32.457,-15.236 8.7165,-3.6496 7.9016,0.88583 1.5236,4.6772 -10.984,7.8661 -30.862,15.13 -30.189,18.496 7.2283,-0.60236 11.587,-4.6772 18.071,-7.937 4.1811,-2.126 5.1024,1.3819 1.5591,4.2165 -6.0591,5.3858 -18.035,10.24 -17.327,13.146 2.5866,2.0197 14.811,-5.6693 22.5,-7.9016 12.047,-3.7913 27.177,-6.8032 39.366,-1.7717 14.917,5.1378 23.705,21.083 40.677,20.693 13.217,-0.0354 20.87,-15.484 18.496,-24.661 -2.6929,-14.032 -17.894,-21.189 -30.331,-17.504 -10.063,4.9606 -9.5315,12.827 2.126,13.146 2.7284,0.0709 -0.35433,-8.1142 3.685,-8.3268 5.1378,1.0276 0.77953,7.1929 3.8976,8.6102 2.2677,1.311 7.5118,3.7205 9.0709,8.3268 1.3464,6.9449 -5.3858,15.839 -11.232,10.524 -2.5866,-1.6654 6.6968,-3.9685 1.4882,-7.5827 -9.0354,-2.2323 -20.055,0.77953 -25.724,-6.0236 -7.9016,-10.984 2.0197,-27.283 13.642,-31.677 17.291,-5.4213 37.984,2.0906 46.843,17.291 6.9803,11.551 7.4764,28.559 3.8622,41.244 -4.0039,13.11 -18.142,21.402 -32.102,21.26 -7.1575,-1.2047 -12.543,-7.7953 -16.441,-11.161 3.7205,4.3937 18.496,19.346 16.512,22.004 -13.5,5.1378 -22.925,-0.0709 -29.339,0.6378 -5.7402,-0.49606 -7.4409,2.7992 -18.532,2.4803 -5.5276,-5.1024 21.26,-9.0709 30.472,-12.579 -22.748,-7.4764 -29.126,-24.236 -43.157,-24.449 -9.7795,1.6299 -18.071,7.3346 -28.311,7.4764 -13.075,-0.0354 -26.469,-11.906 -39.579,-5.9882 8.4331,1.7008 20.126,5.8465 21.331,13.181 -0.28346,3.7913 -4.9961,3.1181 -7.9724,6.9803 -0.46063,2.1968 1.6299,5.3858 0.2126,8.2205 -1.1693,1.6299 -14.598,2.374 -21.224,3.7205 -8.3268,1.4882 -16.654,4.2874 -25.228,3.2244 -4.08,-6.27 43.79,-10.56 41.061,-22.5 -19.488,1.63 -33.519,-6.91 -45.566,-17.61 3.259,6.73 1.133,11.13 1.133,11.13 -10.204,-6.27 -20.126,-16.2 -28.63,-22.4 -2.5157,-6.91 16.689,1.07 24.981,6.67 -6.414,-7.8 -10.807,-11.73 -10.701,-25.3 -0.709,-23.85 35.61,-47.874 42.449,-60.665 -8.0433,4.4291 -18.39,-1.8425 -25.795,1.4173 -1.7717,3.3661 -0.03543,7.689 -4.9252,10.276 -8.1496,-1.4173 -9.2126,-17.433 -5.0315,-19.594 2.9409,-1.5236 5.0315,4.6417 8.1496,3.6496 C 42.4808,41.4628 58.674,37.2817 52.119,31.648 48.752,30.336 49.035,26.367 38.547,26.367 24.339,27.891 20.831,39.655 14.169,40.93 6.5866,41.71 -2.059,23.072 0.421,16.198 c 8.3976,4.89 18.319,4.606 27.532,2.232 8.858,-2.303 14.952,-9.3896 23.952,-11.303 16.229,-2.8346 32.705,1.2756 48.401,4.571 10.42,2.126 17.72,-6.6969 25.34,-11.693 z"
         style="fill:#ffdb00;fill-opacity:1;fill-rule:nonzero;stroke:#000000;stroke-width:1.11145115;stroke-miterlimit:4;stroke-opacity:1;stroke-dasharray:none"
         inkscape:connector-curvature="0" />
    </g>
    <ellipse
       id="ellipse22"
       d="m 118,7441 c 0,65.1696 -52.8304,118 -118,118 -65.1696,0 -118,-52.8304 -118,-118 0,-65.1696 52.8304,-118 118,-118 65.1696,0 118,52.8304 118,118 z"
       class="fil0"
       ry="118"
       rx="118"
       cy="7441"
       cx="0"
       transform="matrix(0.04469393,0,0,0.04510717,502.09859,-65.609577)"
       style="fill:#ff0000;fill-opacity:1;stroke:#000000;stroke-width:27.8395977;stroke-miterlimit:4;stroke-opacity:1;stroke-dasharray:none"
       sodipodi:cx="0"
       sodipodi:cy="7441"
       sodipodi:rx="118"
       sodipodi:ry="118" />
    <path
       id="path24"
       d="m 358.00937,334.96875 c -5.5819,7.158 -10.2579,25.00515 -12.8125,32.96875 10.26876,123.60907 100.33121,159.96976 186.46875,154.71875 -1.78501,6.9621 -2.76739,15.45976 -2.1875,26.90625 2.0342,40.15 17.54575,50.854 32.96875,50 15.422,0.85325 30.93375,-9.8507 32.96875,-50 0.59272,-11.43294 -0.40838,-19.95036 -2.1875,-26.90625 86.13754,5.25101 176.19999,-31.10968 186.46875,-154.71875 -2.5546,-7.9636 -7.2306,-25.81075 -12.8125,-32.96875 l -0.0312,0 c -8.70393,112.43131 -45.01178,172.53343 -181.46875,168.09375 -0.002,-0.004 -0.0293,0.004 -0.0312,0 -3.46061,-7.16513 -6.63769,-14.32635 -7.4375,-25.0625 0.52038,-17.112 6.81355,-22.77775 -1.84375,-35.71875 -1.6558,-1.7065 -3.8792,-5.76615 -13.625,-5.71875 -9.7454,0 -12.01575,4.0586 -13.71875,5.8125 -3.8792,3.2708 -6.99585,7.55425 -16.03125,12.53125 -2.9804,2.7967 6.04365,1.6593 11.53125,9.8125 2.8858,4.7876 2.75,7.35565 2.75,13.28125 -0.79989,10.73655 -3.98217,17.89456 -7.4375,25.0625 -0.0105,3.4e-4 -0.0207,-3.4e-4 -0.0312,0 C 403.00557,507.50218 366.7447,447.40006 358.04077,334.96875 l -0.0312,0 z"
       style="fill:#ffdb00;fill-opacity:1;stroke:#000000;stroke-width:1.25;stroke-miterlimit:4;stroke-opacity:1;stroke-dasharray:none"
       inkscape:connector-curvature="0" />
    <path
       id="path26"
       d="m 546.45687,539.52 c -1.1354,4.3136 -6.9542,17.965 -11.78,24.223 -1.2773,2.5123 9.9819,-1.9435 10.928,-4.598 v 5.072 c 0,9.6226 0.94615,20.099 2.1288,20.099 1.1827,0 2.1288,-10.476 2.1288,-20.099 0,-0.80584 -0.0473,-4.3136 -0.0473,-5.072 1.0881,2.8441 12.063,7.2526 10.928,4.598 -4.8254,-6.2571 -10.644,-20.051 -11.78,-24.27 -0.33115,-2.1331 -0.80423,-3.413 -1.23,-3.413 -0.47308,0 -0.89885,1.2799 -1.2773,3.4604 z"
       style="fill:#ff0000;fill-opacity:1;stroke:#000000;stroke-width:1.25;stroke-miterlimit:4;stroke-opacity:1;stroke-dasharray:none"
       inkscape:connector-curvature="0" />
    <path
       id="path28"
       d="m 565.28687,454.72 c 0,2.9389 -2.3181,5.3091 -5.2512,5.3091 -2.8858,0 -5.2512,-2.3701 -5.2512,-5.3091 0,-2.8915 2.3654,-5.2616 5.2512,-5.2616 2.9331,0 5.2512,2.3701 5.2512,5.2616 z"
       style="fill:#ff0000;fill-opacity:1;stroke:#000000;stroke-width:1.25;stroke-miterlimit:4;stroke-opacity:1;stroke-dasharray:none"
       inkscape:connector-curvature="0" />
    <path
       id="path30"
       d="m 579.52687,594.41 c -5.2038,4.124 -11.165,5.4986 -17.078,5.1668 -5.9608,0.33182 -11.874,-1.0428 -17.078,-5.1668 -1.845,11.424 -3.2642,23.512 -2.9804,32.85 -0.33115,12.893 2.9804,26.071 20.058,26.071 17.0776,0 20.39,-13.178 20.058,-26.071 0.28385,-9.3382 -1.1354,-21.378 -2.9804,-32.85 z"
       style="fill:#ffdb00;fill-opacity:1;stroke:#000000;stroke-width:1.25;stroke-linecap:butt;stroke-linejoin:miter;stroke-miterlimit:4;stroke-opacity:1;stroke-dasharray:none"
       inkscape:connector-curvature="0" />
    <path
       id="path32"
       d="m 576.26687,539.52 c -1.1354,4.3136 -6.9542,17.965 -11.78,24.223 -1.3246,2.5123 9.9346,-1.9435 10.928,-4.598 v 5.072 c 0,9.6226 0.89885,20.099 2.1288,20.099 1.1827,0 2.1288,-10.476 2.1288,-20.099 0,-0.80584 -0.0473,-4.3136 -0.0473,-5.072 1.0408,2.8441 12.063,7.2526 10.928,4.598 -4.8254,-6.2571 -10.644,-20.051 -11.78,-24.27 -0.33116,-2.1331 -0.80424,-3.413 -1.23,-3.413 -0.47307,0 -0.94616,1.2799 -1.2773,3.4604 z"
       style="fill:#ff0000;fill-opacity:1;stroke:#000000;stroke-width:1.25;stroke-miterlimit:4;stroke-opacity:1;stroke-dasharray:none"
       inkscape:connector-curvature="0" />
    <path
       id="path34"
       d="m 591.63687,574.17 c -2.8858,9.8597 -7.1435,16.306 -12.063,20.241 1.7977,11.471 3.2169,23.512 2.9331,32.85 0.0473,1.9909 0.0473,3.9818 -0.0947,5.9727 4.9673,3.887 11.401,5.1669 19.822,0.99546 15.328,-7.6318 12.442,-20.904 6.3866,-32.281 -3.8319,-8.3902 -10.36,-18.439 -16.983,-27.778 z"
       style="fill:#ffdb00;fill-opacity:1;stroke:#000000;stroke-width:1.25;stroke-linecap:butt;stroke-linejoin:miter;stroke-miterlimit:4;stroke-opacity:1;stroke-dasharray:none"
       inkscape:connector-curvature="0" />
    <path
       id="path36"
       d="m 533.25687,574.17 c 2.8858,9.8597 7.1435,16.306 12.111,20.241 -1.845,11.471 -3.2642,23.512 -2.9804,32.85 -0.0473,1.9909 0,3.9818 0.14193,5.9727 -5.0146,3.887 -11.448,5.1669 -19.869,0.99546 -15.28,-7.6318 -12.395,-20.904 -6.3865,-32.281 3.8792,-8.3902 10.36,-18.439 16.983,-27.778 z"
       style="fill:#ffdb00;fill-opacity:1;stroke:#000000;stroke-width:1.25;stroke-linecap:butt;stroke-linejoin:miter;stroke-miterlimit:4;stroke-opacity:1;stroke-dasharray:none"
       inkscape:connector-curvature="0" />
    <path
       style="fill:#ffdb00;fill-opacity:1;stroke:#000000;stroke-width:1.25;stroke-miterlimit:4;stroke-opacity:1;stroke-dasharray:none"
       d="m 651.43687,198.84 c 40.779,-2.0383 85.674,24.649 106.06,60.248 11.165,15.643 30.04,64.277 22.897,87.173 -5.9135,-4.4084 -30.088,-74.896 -58.662,-102.39 -19.869,-22.184 -47.686,-34.935 -70.299,-45.032 z"
       id="path40"
       inkscape:connector-curvature="0" />
    <path
       style="fill:#ffdb00;fill-opacity:1;stroke:#000000;stroke-width:1.25;stroke-miterlimit:4;stroke-opacity:1;stroke-dasharray:none"
       d="m 734.07687,201.92 c 17.22,11.566 39.313,34.983 52.606,52.901 7.2381,9.8597 13.483,22.516 16.51,34.367 4.0212,14.6 -1.1354,32.044 -10.597,43.8 -0.52039,-17.728 -5.535,-35.646 -13.01,-51.716 -7.2854,-15.358 -17.788,-28.821 -28.337,-42.046 -7.8531,-9.8123 -15.659,-24.554 -17.173,-37.306 z"
       id="path42"
       inkscape:connector-curvature="0" />
    <path
       style="fill:#ffdb00;fill-opacity:1;stroke:#000000;stroke-width:1.25;stroke-miterlimit:4;stroke-opacity:1;stroke-dasharray:none"
       d="m 808.77687,280.56 c 11.969,14.79 25.31,48.777 23.748,56.883 1.0408,13.273 -9.6508,30.48 -20.532,35.599 -1.4665,-11.756 -4.2104,-24.602 -11.354,-34.604 5.3458,-5.3091 9.1304,-12.941 9.5562,-21.189 1.5612,-6.4941 -0.14192,-26.261 -1.4192,-36.689 z"
       id="path44"
       inkscape:connector-curvature="0" />
    <path
       style="fill:#ffdb00;fill-opacity:1;stroke:#000000;stroke-width:1.25;stroke-miterlimit:4;stroke-opacity:1;stroke-dasharray:none"
       d="m 789.66687,341.47 c 25.499,20.051 24.884,64.42 -8.9885,80.205 5.3458,-24.839 8.4208,-51.242 8.9885,-80.205 z"
       id="path48"
       inkscape:connector-curvature="0" />
    <path
       style="fill:#ffdb00;fill-opacity:1;stroke:#000000;stroke-width:1.25;stroke-miterlimit:4;stroke-opacity:1;stroke-dasharray:none"
       d="m 837.54687,353.28 c 4.0685,9.196 4.3523,25.171 4.2104,35.03 -0.5677,17.491 -20.2,46.17 -31.696,45.032 5.5823,-15.074 4.8254,-30.906 1.9869,-45.032 9.84,-9.1486 23.228,-22.421 25.499,-35.03 z"
       id="path50"
       inkscape:connector-curvature="0" />
    <path
       style="fill:#ffdb00;fill-opacity:1;stroke:#000000;stroke-width:1.25;stroke-miterlimit:4;stroke-opacity:1;stroke-dasharray:none"
       d="m 766.10687,440.73 c 13.861,-4.124 28.054,-14.884 38.745,-24.27 -4.6835,39.012 -24.222,62.713 -68.123,69.444 13.861,-11.898 26.871,-30.006 29.378,-45.174 z"
       id="path52"
       inkscape:connector-curvature="0" />
    <path
       style="fill:#ffdb00;fill-opacity:1;stroke:#000000;stroke-width:1.25;stroke-miterlimit:4;stroke-opacity:1;stroke-dasharray:none"
       d="m 837.87687,419.92 c 0.56769,33.798 -25.688,61.576 -56.533,65.605 6.765,-10.855 18.828,-21.426 20.721,-40.007 17.173,-3.65 27.249,-15.785 35.812,-25.597 z"
       id="path54"
       inkscape:connector-curvature="0" />
    <path
       style="fill:#ffdb00;fill-opacity:1;stroke:#000000;stroke-width:1.25;stroke-miterlimit:4;stroke-opacity:1;stroke-dasharray:none"
       d="m 822.30687,472.35 c -5.6296,37.353 -54.451,56.788 -82.079,52.806 9.8873,-8.485 24.222,-18.914 31.649,-29.958 19.538,2.0383 30.845,-3.9818 50.43,-22.848 z"
       id="path56"
       inkscape:connector-curvature="0" />
    <path
       style="fill:#ffdb00;fill-opacity:1;stroke:#000000;stroke-width:1.25;stroke-miterlimit:4;stroke-opacity:1;stroke-dasharray:none"
       d="m 725.32687,492.4 c 14.949,0.42661 30.892,-3.7922 45.132,-7.7266 -2.7912,13.51 -24.647,26.308 -31.791,34.414 -15.517,-0.1896 -37.562,-1.8961 -51.329,-3.9818 13.104,-5.3091 27.675,-10.855 37.988,-22.706 z"
       id="path58"
       inkscape:connector-curvature="0" />
    <path
       style="fill:#ffdb00;fill-opacity:1;stroke:#000000;stroke-width:1.25;stroke-miterlimit:4;stroke-opacity:1;stroke-dasharray:none"
       d="m 645.09687,528.38 c 31.885,-13.652 54.83,-2.0857 79.288,-3.65 -26.682,27.351 -51.707,20.099 -79.288,3.65 z"
       id="path60"
       inkscape:connector-curvature="0" />
    <path
       style="fill:#ffdb00;fill-opacity:1;stroke:#000000;stroke-width:1.25;stroke-miterlimit:4;stroke-opacity:1;stroke-dasharray:none"
       d="m 725.51687,535.02 c 20.721,3.7922 43.76,-4.0292 62.919,-11.045 -21.572,33.75 -63.298,44.463 -90.689,27.351 10.786,-2.9863 20.295,-9.0064 27.77,-16.306 z"
       id="path62"
       inkscape:connector-curvature="0" />
    <path
       style="fill:#ffdb00;fill-opacity:1;stroke:#000000;stroke-width:1.25;stroke-miterlimit:4;stroke-opacity:1;stroke-dasharray:none"
       d="m 597.97687,528 c 6.8596,-0.33181 21.478,0.0474 28.29,0 11.922,8.4376 32.264,13.225 53.884,19.909 -7.0962,8.1532 -37.752,14.315 -45.084,13.557 -10.455,-5.7831 -19.254,-14.126 -27.77,-22.374 -2.8385,-2.8441 -7.2381,-7.5844 -9.3196,-11.092 z"
       id="path64"
       inkscape:connector-curvature="0" />
    <path
       style="fill:#ffdb00;fill-opacity:1;stroke:#000000;stroke-width:1.25;stroke-miterlimit:4;stroke-opacity:1;stroke-dasharray:none"
       d="m 604.45687,545.35 c 30.892,36.832 60.128,45.506 105.26,43.183 -16.132,17.254 -46.267,14.79 -65.095,13.225 -32.027,-4.9772 -47.875,-23.843 -40.164,-56.409 z"
       id="path66"
       inkscape:connector-curvature="0" />
    <path
       style="fill:#ffdb00;fill-opacity:1;stroke:#000000;stroke-width:1.25;stroke-miterlimit:4;stroke-opacity:1;stroke-dasharray:none"
       d="m 653.89687,569.48 c 10.077,-5.7357 24.127,-10.95 35.434,-13.32 16.179,14.79 33.21,10.049 57.999,8.248 -30.088,24.175 -65.474,21.094 -93.433,5.072 z"
       id="path68"
       inkscape:connector-curvature="0" />
    <path
       style="fill:#ffdb00;fill-opacity:1;stroke:#000000;stroke-width:1.25;stroke-miterlimit:4;stroke-opacity:1;stroke-dasharray:none"
       d="m 473.41687,198.84 c -40.732,-2.0383 -85.674,24.649 -106.02,60.248 -11.212,15.643 -30.04,64.277 -22.897,87.173 5.8662,-4.4084 30.088,-74.896 58.614,-102.39 19.917,-22.184 47.734,-34.935 70.299,-45.032 z"
       id="path70"
       inkscape:connector-curvature="0" />
    <path
       style="fill:#ffdb00;fill-opacity:1;stroke:#000000;stroke-width:1.25;stroke-miterlimit:4;stroke-opacity:1;stroke-dasharray:none"
       d="m 390.81687,201.92 c -17.22,11.566 -39.36,34.983 -52.606,52.901 -7.2381,9.8597 -13.483,22.516 -16.51,34.367 -4.0212,14.6 1.1354,32.044 10.55,43.8 0.56769,-17.728 5.535,-35.646 13.057,-51.716 7.2854,-15.358 17.788,-28.821 28.337,-42.046 7.8531,-9.8123 15.612,-24.554 17.173,-37.306 z"
       id="path72"
       inkscape:connector-curvature="0" />
    <path
       style="fill:#ffdb00;fill-opacity:1;stroke:#000000;stroke-width:1.25;stroke-miterlimit:4;stroke-opacity:1;stroke-dasharray:none"
       d="m 316.11687,280.56 c -11.969,14.79 -25.31,48.777 -23.748,56.883 -1.0408,13.273 9.6508,30.48 20.532,35.599 1.4665,-11.756 4.1631,-24.602 11.354,-34.604 -5.3458,-5.3091 -9.1304,-12.941 -9.5562,-21.189 -1.5612,-6.4941 0.14193,-26.261 1.4192,-36.689 z"
       id="path74"
       inkscape:connector-curvature="0" />
    <path
       style="fill:#ffdb00;fill-opacity:1;stroke:#000000;stroke-width:1.25;stroke-miterlimit:4;stroke-opacity:1;stroke-dasharray:none"
       d="m 335.22687,341.47 c -25.499,20.051 -24.884,64.42 8.9885,80.205 -5.3458,-24.839 -8.4208,-51.242 -8.9885,-80.205 z"
       id="path78"
       inkscape:connector-curvature="0" />
    <path
       style="fill:#ffdb00;fill-opacity:1;stroke:#000000;stroke-width:1.25;stroke-miterlimit:4;stroke-opacity:1;stroke-dasharray:none"
       d="m 287.30687,353.28 c -4.0685,9.196 -4.305,25.171 -4.1631,35.03 0.5677,17.491 20.2,46.17 31.696,45.032 -5.5823,-15.074 -4.8727,-30.906 -1.9869,-45.032 -9.8873,-9.1486 -23.228,-22.421 -25.546,-35.03 z"
       id="path80"
       inkscape:connector-curvature="0" />
    <path
       style="fill:#ffdb00;fill-opacity:1;stroke:#000000;stroke-width:1.25;stroke-miterlimit:4;stroke-opacity:1;stroke-dasharray:none"
       d="m 358.78687,440.73 c -13.908,-4.124 -28.054,-14.884 -38.745,-24.27 4.6835,39.012 24.222,62.713 68.076,69.444 -13.814,-11.898 -26.823,-30.006 -29.331,-45.174 z"
       id="path82"
       inkscape:connector-curvature="0" />
    <path
       style="fill:#ffdb00;fill-opacity:1;stroke:#000000;stroke-width:1.25;stroke-miterlimit:4;stroke-opacity:1;stroke-dasharray:none"
       d="m 287.02687,419.92 c -0.5677,33.798 25.641,61.576 56.533,65.605 -6.8123,-10.855 -18.828,-21.426 -20.721,-40.007 -17.173,-3.65 -27.249,-15.785 -35.812,-25.597 z"
       id="path84"
       inkscape:connector-curvature="0" />
    <path
       style="fill:#ffdb00;fill-opacity:1;stroke:#000000;stroke-width:1.25;stroke-miterlimit:4;stroke-opacity:1;stroke-dasharray:none"
       d="m 302.58687,472.35 c 5.6296,37.353 54.404,56.788 82.079,52.806 -9.9346,-8.485 -24.222,-18.914 -31.649,-29.958 -19.538,2.0383 -30.845,-3.9818 -50.43,-22.848 z"
       id="path86"
       inkscape:connector-curvature="0" />
    <path
       style="fill:#ffdb00;fill-opacity:1;stroke:#000000;stroke-width:1.25;stroke-miterlimit:4;stroke-opacity:1;stroke-dasharray:none"
       d="m 399.56687,492.4 c -14.949,0.42661 -30.892,-3.7922 -45.132,-7.7266 2.7912,13.51 24.647,26.308 31.791,34.414 15.517,-0.1896 37.562,-1.8961 51.329,-3.9818 -13.104,-5.3091 -27.675,-10.855 -37.988,-22.706 z"
       id="path88"
       inkscape:connector-curvature="0" />
    <path
       style="fill:#ffdb00;fill-opacity:1;stroke:#000000;stroke-width:1.25;stroke-miterlimit:4;stroke-opacity:1;stroke-dasharray:none"
       d="m 479.79687,528.38 c -31.885,-13.652 -54.83,-2.0857 -79.288,-3.65 26.634,27.351 51.66,20.099 79.288,3.65 z"
       id="path90"
       inkscape:connector-curvature="0" />
    <path
       style="fill:#ffdb00;fill-opacity:1;stroke:#000000;stroke-width:1.25;stroke-miterlimit:4;stroke-opacity:1;stroke-dasharray:none"
       d="m 399.32687,535.02 c -20.673,3.7922 -43.712,-4.0292 -62.919,-11.045 21.62,33.75 63.345,44.463 90.736,27.351 -10.786,-2.9863 -20.295,-9.0064 -27.817,-16.306 z"
       id="path92"
       inkscape:connector-curvature="0" />
    <path
       style="fill:#ffdb00;fill-opacity:1;stroke:#000000;stroke-width:1.25;stroke-miterlimit:4;stroke-opacity:1;stroke-dasharray:none"
       d="m 526.87687,528 c -6.8123,-0.33181 -21.43,0.0474 -28.29,0 -11.874,8.4376 -32.217,13.225 -53.836,19.909 7.0962,8.1532 37.752,14.315 45.084,13.557 10.455,-5.7831 19.207,-14.126 27.77,-22.374 2.8385,-2.8441 7.2381,-7.5844 9.2723,-11.092 z"
       id="path94"
       inkscape:connector-curvature="0" />
    <path
       style="fill:#ffdb00;fill-opacity:1;stroke:#000000;stroke-width:1.25;stroke-miterlimit:4;stroke-opacity:1;stroke-dasharray:none"
       d="m 520.43687,545.35 c -30.892,36.832 -60.128,45.506 -105.31,43.183 16.179,17.254 46.314,14.79 65.095,13.225 32.075,-4.9772 47.923,-23.843 40.212,-56.409 z"
       id="path96"
       inkscape:connector-curvature="0" />
    <path
       style="fill:#ffdb00;fill-opacity:1;stroke:#000000;stroke-width:1.25;stroke-miterlimit:4;stroke-opacity:1;stroke-dasharray:none"
       d="m 471.00687,569.48 c -10.077,-5.7357 -24.174,-10.95 -35.434,-13.32 -16.179,14.79 -33.21,10.049 -57.999,8.248 30.04,24.175 65.474,21.094 93.433,5.072 z"
       id="path98"
       inkscape:connector-curvature="0" />
    <ellipse
       style="fill:#000096;fill-opacity:1"
       d="m 1165.5079,701.65002 c 0,38.44455 -31.2541,69.61001 -69.8079,69.61001 -38.5539,0 -69.808,-31.16546 -69.808,-69.61001 0,-38.44454 31.2541,-69.61 69.808,-69.61 38.5538,0 69.8079,31.16546 69.8079,69.61 z"
       cy="701.65002"
       rx="69.807999"
       ry="69.610001"
       transform="matrix(-0.99066602,-0.1551353,0.15471636,-0.99334854,1542.2319,1033.2488)"
       cx="1095.7"
       id="ellipse102"
       sodipodi:cx="1095.7"
       sodipodi:cy="701.65002"
       sodipodi:rx="69.807999"
       sodipodi:ry="69.610001" />
    <path
       style="fill:#ffffff"
       d="m 565.33267,119.54607 6.25082,23.27431 17.04788,-17.00657 -6.19367,23.30448 23.26962,-6.21043 -16.98972,17.09303 23.21247,6.26875 -23.21247,6.26876 16.98972,17.09404 -23.26962,-6.21044 6.19367,23.33263 -17.04788,-17.03573 -6.25082,23.27532 -6.25183,-23.27532 -17.04788,17.03573 6.19367,-23.33263 -23.26962,6.21044 16.98972,-17.06489 -23.21247,-6.2969 23.21247,-6.26875 -16.98972,-17.09304 23.26962,6.21044 -6.19367,-23.30448 17.04788,17.00657 6.25183,-23.27532 0,0 z"
       id="path104"
       inkscape:connector-curvature="0" />
    <ellipse
       style="fill:#000096;fill-opacity:1"
       d="m 1122.062,701.65002 c 0,14.51847 -11.8027,26.288 -26.362,26.288 -14.5594,0 -26.362,-11.76953 -26.362,-26.288 0,-14.51846 11.8026,-26.288 26.362,-26.288 14.5593,0 26.362,11.76954 26.362,26.288 z"
       cy="701.65002"
       rx="26.362"
       ry="26.288"
       transform="matrix(-0.99066602,-0.1551353,0.15471636,-0.99334854,1542.2319,1033.2494)"
       cx="1095.7"
       id="ellipse106"
       sodipodi:cx="1095.7"
       sodipodi:cy="701.65002"
       sodipodi:rx="26.362"
       sodipodi:ry="26.288" />
    <ellipse
       style="fill:#ffffff"
       d="m 1118.969,701.65002 c 0,12.81522 -10.4179,23.204 -23.269,23.204 -12.8512,0 -23.269,-10.38878 -23.269,-23.204 0,-12.81521 10.4178,-23.204 23.269,-23.204 12.8511,0 23.269,10.38879 23.269,23.204 z"
       cy="701.65002"
       rx="23.268999"
       ry="23.204"
       transform="matrix(-0.99066602,-0.1551353,0.15471636,-0.99334854,1542.2319,1033.2494)"
       cx="1095.7"
       id="ellipse108"
       sodipodi:cx="1095.7"
       sodipodi:cy="701.65002"
       sodipodi:rx="23.268999"
       sodipodi:ry="23.204" />
  </g>
</svg>
